<svg width="70" height="70" viewBox="0 0 70 70" fill="none" xmlns="http://www.w3.org/2000/svg">
<rect width="70" height="70" rx="35" fill="#FF9357"/>
<path opacity="0.4" d="M29.2001 46.88C29.1601 46.88 29.1067 46.9066 29.0667 46.9066C26.4801 45.6266 24.3734 43.5066 23.0801 40.92C23.0801 40.88 23.1067 40.8266 23.1067 40.7866C24.7334 41.2666 26.4134 41.6266 28.0801 41.9066C28.3734 43.5866 28.7201 45.2533 29.2001 46.88Z" fill="black"/>
<path opacity="0.4" d="M46.92 40.9333C45.6 43.5866 43.4 45.7333 40.72 47.0266C41.2266 45.3333 41.6533 43.6266 41.9333 41.9066C43.6133 41.6266 45.2666 41.2666 46.8933 40.7866C46.88 40.84 46.92 40.8933 46.92 40.9333Z" fill="black"/>
<path opacity="0.4" d="M47.0266 29.2801C45.3466 28.7734 43.6533 28.3601 41.9333 28.0667C41.6533 26.3467 41.24 24.6401 40.72 22.9734C43.48 24.2934 45.7066 26.5201 47.0266 29.2801Z" fill="black"/>
<path opacity="0.4" d="M29.2001 23.12C28.7201 24.7466 28.3734 26.4 28.0934 28.08C26.3734 28.3466 24.6667 28.7733 22.9734 29.28C24.2667 26.6 26.4134 24.4 29.0667 23.08C29.1067 23.08 29.1601 23.12 29.2001 23.12Z" fill="black"/>
<path d="M39.6533 27.7866C36.56 27.44 33.44 27.44 30.3467 27.7866C30.68 25.96 31.1067 24.1333 31.7067 22.3733C31.7333 22.2666 31.72 22.1866 31.7333 22.08C32.7867 21.8266 33.8667 21.6666 35 21.6666C36.12 21.6666 37.2133 21.8266 38.2533 22.08C38.2667 22.1866 38.2667 22.2666 38.2933 22.3733C38.8933 24.1466 39.32 25.96 39.6533 27.7866Z" fill="black"/>
<path d="M27.7867 39.6533C25.9467 39.32 24.1334 38.8933 22.3734 38.2933C22.2667 38.2667 22.1867 38.28 22.0801 38.2667C21.8267 37.2133 21.6667 36.1333 21.6667 35C21.6667 33.88 21.8267 32.7867 22.0801 31.7467C22.1867 31.7333 22.2667 31.7333 22.3734 31.7067C24.1467 31.12 25.9467 30.68 27.7867 30.3467C27.4534 33.44 27.4534 36.56 27.7867 39.6533Z" fill="black"/>
<path d="M48.3334 35C48.3334 36.1333 48.1734 37.2133 47.92 38.2667C47.8134 38.28 47.7334 38.2667 47.6267 38.2933C45.8534 38.88 44.04 39.32 42.2134 39.6533C42.56 36.56 42.56 33.44 42.2134 30.3467C44.04 30.68 45.8667 31.1067 47.6267 31.7067C47.7334 31.7333 47.8134 31.7467 47.92 31.7467C48.1734 32.8 48.3334 33.88 48.3334 35Z" fill="black"/>
<path d="M39.6533 42.2134C39.32 44.0534 38.8933 45.8667 38.2933 47.6267C38.2667 47.7334 38.2667 47.8134 38.2533 47.92C37.2133 48.1734 36.12 48.3334 35 48.3334C33.8667 48.3334 32.7867 48.1734 31.7333 47.92C31.72 47.8134 31.7333 47.7334 31.7067 47.6267C31.12 45.8534 30.68 44.0534 30.3467 42.2134C31.8933 42.3867 33.44 42.5067 35 42.5067C36.56 42.5067 38.12 42.3867 39.6533 42.2134Z" fill="black"/>
<path d="M40.0179 40.0177C36.6831 40.4385 33.3171 40.4385 29.9823 40.0177C29.5616 36.6829 29.5616 33.317 29.9823 29.9822C33.3171 29.5614 36.6831 29.5614 40.0179 29.9822C40.4386 33.317 40.4386 36.6829 40.0179 40.0177Z" fill="black"/>
</svg>
