<svg width="70" height="70" viewBox="0 0 70 70" fill="none" xmlns="http://www.w3.org/2000/svg">
<rect width="70" height="70" rx="35" fill="#FF9357"/>
<path opacity="0.4" d="M31.3333 21.6666C27.84 21.6666 25 24.5066 25 28C25 31.4266 27.68 34.2 31.1733 34.32C31.28 34.3066 31.3867 34.3066 31.4667 34.32C31.4933 34.32 31.5067 34.32 31.5333 34.32C31.5467 34.32 31.5467 34.32 31.56 34.32C34.9733 34.2 37.6533 31.4266 37.6667 28C37.6667 24.5066 34.8267 21.6666 31.3333 21.6666Z" fill="black"/>
<path d="M38.1065 37.8667C34.3865 35.3867 28.3199 35.3867 24.5732 37.8667C22.8799 39 21.9465 40.5334 21.9465 42.1734C21.9465 43.8134 22.8799 45.3334 24.5599 46.4534C26.4265 47.7067 28.8799 48.3334 31.3332 48.3334C33.7865 48.3334 36.2399 47.7067 38.1065 46.4534C39.7865 45.32 40.7199 43.8 40.7199 42.1467C40.7065 40.5067 39.7865 38.9867 38.1065 37.8667Z" fill="black"/>
<path opacity="0.4" d="M45.9865 28.7866C46.1998 31.3733 44.3598 33.64 41.8132 33.9466C41.7998 33.9466 41.7998 33.9466 41.7865 33.9466H41.7465C41.6665 33.9466 41.5865 33.9466 41.5198 33.9733C40.2265 34.04 39.0398 33.6266 38.1465 32.8666C39.5198 31.64 40.3065 29.8 40.1465 27.8C40.0532 26.72 39.6798 25.7333 39.1198 24.8933C39.6265 24.64 40.2132 24.48 40.8132 24.4266C43.4265 24.2 45.7598 26.1466 45.9865 28.7866Z" fill="black"/>
<path d="M48.6532 41.12C48.5466 42.4133 47.7199 43.5333 46.3332 44.2933C44.9999 45.0267 43.3199 45.3733 41.6532 45.3333C42.6132 44.4667 43.1732 43.3867 43.2799 42.24C43.4132 40.5867 42.6266 39 41.0532 37.7333C40.1599 37.0267 39.1199 36.4667 37.9866 36.0533C40.9332 35.2 44.6399 35.7733 46.9199 37.6133C48.1466 38.6 48.7732 39.84 48.6532 41.12Z" fill="black"/>
</svg>
