<svg width="36" height="36" viewBox="0 0 36 36" fill="none" xmlns="http://www.w3.org/2000/svg">
<path d="M22.26 16.35L30.75 10.665C31.605 10.095 31.83 8.92503 31.26 8.08503L28.53 4.02C27.96 3.165 26.79 2.94001 25.95 3.51001L17.46 9.19502L22.26 16.35Z" fill="white"/>
<path d="M21.78 15.63L19.14 17.4L15.135 20.085L14.61 20.43L14.37 20.07L11.01 15.06L10.77 14.7L17.94 9.90002L21.78 15.63Z" fill="white"/>
<path d="M8.4599 24.03L14.3849 20.07L11.0249 15.06L5.09991 19.02C4.40991 19.485 4.2299 20.415 4.6949 21.105L6.38991 23.625C6.83991 24.315 7.7699 24.495 8.4599 24.03Z" fill="white"/>
<path opacity="0.4" d="M24.8401 32.715C24.6901 32.775 24.5251 32.82 24.3751 32.82C23.9401 32.82 23.5351 32.565 23.3401 32.145L17.7451 19.785L12.0751 32.16C11.8801 32.565 11.4751 32.82 11.0401 32.82C10.8901 32.82 10.7251 32.775 10.5751 32.715C10.0201 32.445 9.76509 31.785 10.0201 31.215L15.1351 20.085L19.1401 17.4L25.3951 31.23C25.6501 31.785 25.3951 32.46 24.8401 32.715Z" fill="white"/>
</svg>
